<?xml version="1.0" encoding="utf-8"?>
<!-- Generator: Adobe Illustrator 21.0.0, SVG Export Plug-In . SVG Version: 6.00 Build 0)  -->
<svg version="1.1" id="Layer_1" xmlns="http://www.w3.org/2000/svg" xmlns:xlink="http://www.w3.org/1999/xlink" x="0px" y="0px"
	 viewBox="0 0 561.1 112.4" style="enable-background:new 0 0 561.1 112.4;" xml:space="preserve">
<g>
	<g>
		<path d="M74.6,50c-0.9,11.7-2.4,25.5-7.8,38.6c-2.4,5.9-6.2,10.7-12.4,13.2c-4.3,1.7-8.5,1.3-12.8,0.1c-5-1.4-9.4-4.1-13.4-7.2
			c-1.1-0.8-1.5-1.9-0.7-3.2c0.8-1.3,2.1-1.2,3.3-0.5c1.7,1.1,3.3,2.3,5.1,3.3c3.8,2.3,7.8,3.8,12.3,4c4,0.1,7.1-1.5,9.8-4.2
			c4.2-4.4,6.2-9.9,7.6-15.6c2.4-9.5,4-19.2,4.4-29.1c0.3-7.2-0.6-14.3-4-20.8c-5.5-10.4-17.6-15.1-29-11.2
			c-1.5,0.5-2.9,1.1-4.4,1.7c-1.5,0.6-2.5,0.1-3.1-1.2c-0.6-1.3,0.1-2.3,1.3-2.9c17.2-8.6,34.9-0.3,40.8,15
			C73.8,35.6,74.6,41.6,74.6,50z"/>
	</g>
	<g>
		<path d="M18.8,53.1c1,15.1,6.5,26.4,18.7,33.8c2.7,1.6,5.8,2.6,9,2.3c3.5-0.3,6-2.3,8.1-5c0.4-0.5,0.7-1,1.1-1.5
			c0.9-1.2,2-1.6,3.3-0.7c1.2,0.8,1.2,2.1,0.5,3.3c-4.5,7.8-13.3,10.7-21.6,6.9c-11-5-17.7-13.9-21.5-25.1c-2.8-8.3-3.1-16.8,0-25.1
			c4-10.7,11.1-18.2,22.4-20.8c2.9-0.7,6-0.3,9-0.2c1.4,0.1,2.6,0.9,2.3,2.6c-0.3,1.7-1.5,2.1-3,1.8C34.9,23,23.6,33.7,20.6,44
			C19.7,47.2,19.3,50.7,18.8,53.1z"/>
	</g>
	<g>
		<path d="M46.4,6.6C36.8,6.9,27.7,11,19.8,17.9c-4.8,4.2-8.5,9.2-11.1,15c-0.1,0.2-0.2,0.5-0.3,0.7c-0.7,1.4-1.7,2.1-3.3,1.3
			c-1.5-0.7-1.5-2-0.9-3.4c2.5-5.5,5.8-10.3,10-14.6c6.9-7,15-11.6,24.5-14.1c16.4-4.1,34.2,4.9,40.2,20.7c0.8,2.1,1.5,4.4,2.1,6.7
			c0.4,1.4,0.3,2.7-1.4,3.2c-1.7,0.5-2.6-0.4-3-2c-1.4-6-3.8-11.6-8.3-15.9C62.6,9.9,55.7,6.5,46.4,6.6z"/>
	</g>
	<g>
		<path d="M52.5,111.9c-7.1-0.3-12.9-2.4-18.4-5.5C16,96.2,5.1,80.7,1,60.4c-0.2-1.1-0.3-2.3-0.5-3.4c-0.1-1.6,0.7-2.8,2.1-2.8
			c1.5,0,2.3,0.8,2.4,2.3C6.6,69,11.5,79.9,19.9,89.2c8,8.9,17.4,15.7,29.6,17.7c2.1,0.3,4.5,0,6.7-0.3c1.9-0.3,3.2,0.1,3.6,1.4
			c0.4,1.4-0.4,2.5-2.4,3C55.6,111.5,53.8,111.6,52.5,111.9z"/>
	</g>
	<g>
		<path d="M43.3,84.9c-4.2-0.2-7.7-2-10.7-4.5c-10.4-8.5-14.3-25.5-8.4-37.5c0.3-0.7,0.9-1.6,1.5-1.7c0.8-0.2,2.1,0,2.5,0.6
			c0.5,0.6,0.6,2,0.3,2.7c-4.3,9.5-2.9,18.4,2.3,27c2,3.2,4.6,5.9,8,7.6c4.6,2.4,8.9,1.3,11.6-3c1.1-1.9,2-3.9,2.8-5.9
			c0.8-1.9,1.7-2.8,3-2.4c1.5,0.5,1.9,1.8,1.2,4c-1.2,3.8-2.9,7.2-5.9,9.9C49.1,83.6,46.4,84.7,43.3,84.9z"/>
	</g>
	<g>
		<path d="M28.4,56.4c0-5.2,1.5-9.9,5.2-13.8c5-5.3,12.3-4.7,16.3,1.4c2.7,4.1,3.2,8.7,3.1,13.4c-0.1,1.4-0.7,2.4-2.1,2.4
			c-1.5,0.1-2.3-1-2.4-2.4c-0.2-2.1-0.1-4.2-0.6-6.2c-0.5-1.9-1.2-3.8-2.4-5.5c-1.7-2.5-4.6-2.9-7.1-1.1c-3,2-4.5,5.1-5,8.6
			c-0.9,5.9,0.1,11.3,4.5,15.7c1.1,1.1,2.8,1.7,4.2,2.1c1.7,0.5,2.7,1.2,2.4,2.8c-0.3,1.6-1.5,2-3,1.9c-3.4-0.3-5.9-2.1-8-4.6
			C30,66.8,28.5,61.9,28.4,56.4z"/>
	</g>
	<g>
		<path d="M7.3,52c-0.1-8.6,2.7-16.9,8.1-24.4c1.1-1.5,2.5-2,3.6-1c1.4,1.2,1,2.5,0.1,3.7c-2.9,4-5,8.4-6.2,13.3
			c-2.7,11.4-0.3,22,5.1,32.1c1.2,2.2,2.7,4.3,4.1,6.4c1.1,1.6,1.1,3-0.1,3.8c-1.2,0.8-2.5,0.5-3.7-1.1C11.4,75.2,7.5,64.6,7.3,52z"
			/>
	</g>
	<g>
		<path d="M67.7,52.1c-0.8,6-1.7,12.2-2.7,18.5c-0.3,1.9-1.3,2.6-2.8,2.2c-1.4-0.3-1.9-1.5-1.6-3.3c0.8-5.4,1.7-10.8,2.1-16.3
			c0.4-6.2-0.5-12.2-3.3-17.8c-1.5-2.9-3.4-5.4-6.2-7.3c-1.2-0.9-2.1-1.9-1.1-3.5c0.8-1.3,2-1.4,3.7-0.2c5.4,3.7,8.5,9.1,10,15.3
			C66.7,43.6,67,47.6,67.7,52.1z"/>
	</g>
	<g>
		<path d="M82.7,45.2c-1.1,7.1-2,14.1-3.2,21.1c-0.8,5.1-1.9,10.3-2.9,15.4c-0.1,0.6-0.1,1.5-0.5,1.7c-0.7,0.6-1.8,1.2-2.7,1.1
			c-1.5-0.2-1.9-1.5-1.6-2.9c1-5.3,2.2-10.6,3-15.9c1.1-7.2,2-14.5,2.8-21.7c0.3-2.2,0.8-3.2,2.4-3.1c1.5,0.1,2.1,1.1,2.1,3.2
			c0,0.4,0,0.7,0,1.1C82.5,45.2,82.6,45.2,82.7,45.2z"/>
	</g>
	<g>
		<path d="M60,54.4c0,1,0.1,2,0,3c-0.1,1.5-0.7,2.7-2.4,2.6s-2.3-1.2-2.2-2.7c0.1-4.5-0.1-8.9-1.5-13.1c-1.5-4.6-4.1-8.4-9.1-9.5
			c-1.7-0.4-3.6-0.2-5.4,0.1c-2.3,0.3-3.3,0.1-3.7-1.4c-0.5-1.6,0.3-2.5,2.7-3.1c6.7-1.7,13.9,1.3,17.7,7.6C59,42.9,60,48.5,60,54.4
			z"/>
	</g>
</g>
<g>
	<path d="M114.2,42.9c-0.4-1.2-1-2-1.7-2.5c-0.7-0.4-2-0.6-3.8-0.6h-1.8v-8.9h16.3l11.2,35.3l11.2-35.3h16.1v8.9h-1.9
		c-1.8,0-3,0.2-3.7,0.6s-1.3,1.2-1.8,2.5l-13.4,37.2h-13.2L114.2,42.9z"/>
	<path d="M169.1,75.1c-4.7-4.3-7-10.7-7-19.1c0-8.9,2.2-15.5,6.7-20c4.4-4.4,10.8-6.7,19-6.7c7.9,0,14,2.2,18.1,6.6
		s6.2,10.4,6.2,17.9v4.8h-36.6c0,4.8,1.1,8.3,3.4,10.5s5.5,3.3,9.7,3.3s7.6-0.5,10.1-1.6v-3.6h11.6V75c-5.2,4.4-12.5,6.6-21.8,6.6
		C180.3,81.6,173.8,79.5,169.1,75.1z M198.7,51c0-4.2-0.9-7.4-2.8-9.4c-1.8-2-4.6-3.1-8.4-3.1c-3.9,0-6.9,1.1-9,3.2
		c-2.1,2.2-3.1,5.2-3.1,9.3H198.7z"/>
	<path d="M220.1,71.2h2.7c1.4,0,2.5-0.3,3.1-1c0.6-0.6,0.9-1.7,0.9-3V43.6c0-1.3-0.3-2.3-0.9-2.9s-1.6-0.9-2.9-0.9h-2.9v-8.9h15.3
		l0.6,6.8c2.3-2.8,4.9-4.9,7.9-6.3s6.6-2,10.8-2c5.7,0,9.9,1.5,12.6,4.4s4,7.2,4,12.8v20.9c0,1.3,0.3,2.3,0.9,2.9s1.6,0.9,2.9,0.9
		h2.7v8.9h-19.9V46.6c0-3-0.6-5.2-1.8-6.5c-1.2-1.3-3.2-2-6-2c-2.9,0-5.3,0.8-7.1,2.5c-1.8,1.7-2.7,4-2.7,7v19.8
		c0,1.3,0.3,2.3,0.9,2.9s1.6,0.9,2.9,0.9h2.7v8.9h-26.5v-8.9H220.1z"/>
	<path d="M307.8,79.4c-2.8-1.5-5.2-3.8-7.2-6.9l-0.8,7.6h-10.2V25.6c0-1.5-0.3-2.6-0.8-3.3c-0.5-0.7-1.5-1-3-1H284v-9h18.8V36
		c2.2-2.3,4.6-4,7.3-5c2.7-1,5.8-1.5,9.4-1.5c7,0,12.4,2.3,16,6.8s5.4,11,5.4,19.6c0,8.1-2,14.5-6.1,19.1s-9.6,6.9-16.4,6.9
		C314.1,81.6,310.6,80.9,307.8,79.4z M324.7,69.2c1.9-2.9,2.8-7.5,2.8-13.6s-0.9-10.6-2.8-13.4s-5-4.2-9.4-4.2
		c-3.6,0-6.5,1.3-8.8,3.9c-2.2,2.6-3.3,6.2-3.3,10.8v5.7c0,4.2,1.2,7.8,3.5,10.8c2.3,2.9,5.3,4.4,9,4.4
		C319.8,73.6,322.8,72.2,324.7,69.2z"/>
	<path d="M355.1,80.1c-3.8-1-7-2.6-9.8-4.7v-8.6h12.4v3.9c1.9,1.2,4.7,1.8,8.5,1.8c2.9,0,5.1-0.3,6.5-1s2-1.9,2-3.7
		c0-1.6-0.6-2.8-1.7-3.6c-1.1-0.8-3.4-1.9-6.7-3.2l-4.7-1.8c-3.6-1.5-6.5-2.9-8.7-4.2c-2.2-1.3-3.9-2.8-5.2-4.7
		c-1.3-1.9-1.9-4.2-1.9-6.9c0-4.6,1.8-8.1,5.4-10.5s8.6-3.5,14.9-3.5c4.1,0,7.9,0.5,11.5,1.5s6.7,2.6,9.3,4.6v8.6h-12v-3.7
		c-1.8-1.3-4.3-1.9-7.5-1.9c-2.6,0-4.6,0.4-6.1,1.1s-2.2,2-2.2,3.8c0,1.7,0.8,3.1,2.5,4c1.6,1,4.2,2.1,7.8,3.4l3.3,1.2
		c3.5,1.3,6.3,2.6,8.4,3.8c2.1,1.3,3.8,2.8,5.1,4.7c1.3,1.9,1.9,4.3,1.9,7.1c0,4.5-1.8,7.9-5.4,10.3s-8.9,3.5-15.8,3.5
		C362.7,81.6,358.8,81.1,355.1,80.1z"/>
	<path d="M395.1,92.5h2.7c1.4,0,2.5-0.3,3.1-1s0.9-1.7,0.9-3V43.8c0-1.4-0.3-2.4-0.9-3s-1.6-1-3-1h-1.7v-8.9h16.1l1,7.2
		c4.1-5.8,10-8.7,17.7-8.7c7,0,12.5,2.2,16.4,6.6c4,4.4,6,10.8,6,19.1c0,8.5-1.9,15-5.8,19.6c-3.9,4.6-9.3,6.9-16.4,6.9
		c-3.6,0-6.6-0.5-9-1.4s-4.8-2.6-7-4.8v13.3c0,1.3,0.3,2.3,0.9,2.9c0.6,0.6,1.6,0.9,2.9,0.9h2.7v8.9h-26.5v-8.9H395.1z M437.1,68.8
		c1.9-2.9,2.9-7.5,2.9-13.7c0-6.1-0.9-10.5-2.8-13.4c-1.8-2.8-4.9-4.3-9.2-4.3c-3.8,0-6.9,1.5-9.3,4.4c-2.4,2.9-3.6,6.6-3.6,10.9
		v5.7c0,4.5,1.2,8.1,3.6,10.8c2.4,2.7,5.4,4,9,4C432,73.2,435.2,71.8,437.1,68.8z"/>
	<path d="M468.1,74.9c-4.4-4.5-6.6-10.9-6.6-19.3s2.2-14.9,6.6-19.4c4.4-4.5,10.8-6.8,19.3-6.8s15,2.3,19.3,6.8s6.5,11,6.5,19.4
		c0,8.3-2.2,14.8-6.6,19.3c-4.4,4.5-10.8,6.8-19.2,6.8C478.9,81.6,472.5,79.4,468.1,74.9z M496.8,68.4c2-2.7,3-7,3-12.8
		c0-5.9-1-10.2-3-13s-5.2-4.2-9.5-4.2s-7.5,1.4-9.5,4.2c-2,2.8-3,7.1-3,13c0,5.8,1,10.1,3,12.8c2,2.7,5.2,4.1,9.5,4.1
		C491.6,72.5,494.7,71.1,496.8,68.4z"/>
	<path d="M529.2,77.3c-3.2-2.9-4.8-7.1-4.8-12.7V39.8h-7.8v-8.9h7.8V20.3l13.4-4v14.6h14v8.9h-14v25.8c0,2.5,0.5,4.4,1.6,5.5
		c1.1,1.2,2.6,1.7,4.8,1.7c2.6,0,4.6-0.6,6-1.8v-4.4h10.9v8.6c-4.2,4.2-10.1,6.4-17.7,6.4C537.1,81.6,532.3,80.2,529.2,77.3z"/>
</g>
</svg>
